<?xml version="1.0" standalone="no"?>
<!DOCTYPE svg PUBLIC "-//W3C//DTD SVG 20010904//EN"
 "http://www.w3.org/TR/2001/REC-SVG-20010904/DTD/svg10.dtd">
<svg version="1.0" xmlns="http://www.w3.org/2000/svg"
 width="300.000000pt" height="300.000000pt" viewBox="50 50 200.000000 200.000000"
 preserveAspectRatio="xMidYMid meet">
<metadata>
Created by potrace 1.10, written by Peter Selinger 2001-2011
</metadata>
<g transform="translate(0.000000,300.000000) scale(0.100000,-0.100000)"
fill="#ffffff" stroke="none">
<path d="M1360 2434 c-212 -55 -400 -243 -455 -454 -25 -95 -17 -261 17 -352
51 -137 104 -204 436 -548 l140 -145 47 45 c133 127 424 444 463 504 84 129
122 285 103 421 -35 252 -229 467 -476 530 -73 19 -202 18 -275 -1z m170 -69
c20 -25 8 -50 -25 -50 -21 0 -31 5 -33 18 -4 21 14 47 33 47 7 0 18 -7 25 -15z
m18 -139 c15 -8 47 -35 71 -60 44 -44 45 -45 55 -23 13 25 60 35 82 16 9 -8
14 -32 14 -78 l0 -67 50 -49 c55 -54 61 -76 28 -99 -19 -14 -24 -14 -49 1 -15
9 -84 74 -154 145 -76 77 -135 128 -146 128 -12 0 -72 -54 -155 -139 -74 -76
-144 -141 -155 -144 -21 -6 -59 23 -59 45 0 15 276 295 315 319 36 23 67 24
103 5z m70 -280 l92 -93 0 -138 c0 -150 -8 -175 -56 -175 -44 0 -54 24 -54
125 0 118 -6 125 -100 125 -94 0 -100 -7 -100 -122 0 -71 -4 -96 -17 -110 -20
-22 -51 -23 -75 -1 -16 14 -18 33 -18 156 l0 141 93 93 c68 68 100 93 118 93
19 0 50 -25 117 -94z m-570 -38 c17 -17 15 -45 -4 -52 -56 -21 -113 14 -78 48
18 19 65 21 82 4z m988 -2 c15 -12 17 -18 8 -33 -15 -24 -82 -25 -97 -1 -25
38 46 65 89 34z m-976 -216 c14 -41 37 -95 52 -120 60 -103 209 -206 313 -218
42 -4 44 -3 47 24 3 25 7 29 33 29 26 0 30 -4 33 -29 4 -28 5 -28 50 -22 106
14 245 114 308 221 15 26 37 79 49 118 19 63 25 72 47 75 36 4 43 -25 23 -96
-57 -196 -220 -351 -414 -392 l-61 -13 0 -86 c0 -89 -8 -111 -41 -111 -24 0
-29 20 -29 114 l0 82 -72 17 c-188 44 -331 169 -395 345 -23 62 -30 122 -16
136 4 4 16 6 27 4 15 -2 26 -21 46 -78z"/>
<path d="M1280 959 c-77 -10 -142 -31 -148 -47 -5 -17 52 -39 134 -52 82 -13
387 -14 465 -1 104 17 141 31 137 49 -4 23 -68 43 -158 49 l-75 5 -50 -51
c-41 -43 -55 -51 -85 -51 -30 0 -44 9 -90 55 -30 30 -57 54 -60 54 -3 -1 -34
-5 -70 -10z"/>
</g>
</svg>
